<svg width="99" height="47" viewBox="0 0 99 47" fill="none" xmlns="http://www.w3.org/2000/svg">
<path d="M49.3881 0.166875C18.8274 0.154612 0.203735 23.2306 0.203735 23.2306C0.203735 23.2306 18.8274 46.2938 49.3881 46.2938C79.9489 46.2938 98.5725 23.2306 98.5725 23.2306C98.5725 23.2306 79.9492 0.179138 49.3881 0.166875ZM49.3402 6.37435C49.3562 6.37434 49.3722 6.37434 49.3881 6.37435C54.8473 6.37437 60.0829 8.1503 63.9431 11.3114C67.8033 14.4726 69.972 18.76 69.972 23.2306C69.972 27.7011 67.8033 31.9885 63.9431 35.1497C60.0829 38.3108 54.8473 40.0868 49.3881 40.0868C43.9289 40.0868 38.6934 38.3108 34.8332 35.1497C30.9729 31.9885 28.8043 27.7011 28.8043 23.2306C28.8043 18.7668 30.9663 14.4853 34.8162 11.3253C38.6661 8.16527 43.8893 6.38476 49.3402 6.37435H49.3402Z" fill="#333333"/>
<path d="M49.3882 32.3352C55.5287 32.3352 60.5066 28.2588 60.5066 23.2303C60.5066 18.2018 55.5287 14.1254 49.3882 14.1254C43.2476 14.1254 38.2697 18.2018 38.2697 23.2303C38.2697 28.2588 43.2476 32.3352 49.3882 32.3352Z" fill="#333333"/>
</svg>