<svg width="99" height="61" viewBox="0 0 99 61" fill="none" xmlns="http://www.w3.org/2000/svg">
<path d="M49.3881 7.37064C43.4319 7.36826 37.9314 8.24563 32.9316 9.6555L40.3839 15.2767C43.1748 14.1648 46.2366 13.5841 49.3402 13.5781C49.3562 13.5781 49.3721 13.5781 49.3881 13.5781C54.8473 13.5781 60.0829 15.3541 63.9431 18.5152C67.8033 21.6764 69.972 25.9638 69.972 30.4343C69.9719 32.5235 69.4976 34.5945 68.5732 36.5418L80.1239 45.2553C91.9496 38.6342 98.5725 30.4343 98.5725 30.4343C98.5725 30.4343 79.9492 7.3829 49.3881 7.37064ZM18.6534 15.6078C6.82715 22.23 0.203735 30.4343 0.203735 30.4343C0.203735 30.4343 18.8274 53.4976 49.3881 53.4976C55.3446 53.4976 60.8452 52.6187 65.8452 51.208L58.3982 45.5903C55.5911 46.7092 52.5101 47.2906 49.3881 47.2905C43.9289 47.2905 38.6934 45.5146 34.8332 42.3534C30.9729 39.1923 28.8043 34.9049 28.8043 30.4343C28.8044 28.3434 29.2796 26.2707 30.2056 24.3221L18.6534 15.6078Z" fill="#333333"/>
<path d="M49.3881 21.3294C49.0752 21.3293 48.7624 21.3401 48.4505 21.3617L60.5066 30.4563C60.5066 30.449 60.5066 30.4416 60.5066 30.4343C60.5066 29.2386 60.219 28.0547 59.6602 26.95C59.1015 25.8453 58.2825 24.8416 57.25 23.9962C56.2176 23.1507 54.9919 22.48 53.643 22.0225C52.294 21.5649 50.8482 21.3294 49.3881 21.3294ZM38.2697 30.4059C38.2696 30.4153 38.2696 30.4248 38.2697 30.4343C38.2697 31.63 38.5573 32.814 39.116 33.9186C39.6748 35.0233 40.4937 36.027 41.5262 36.8725C42.5586 37.7179 43.7843 38.3886 45.1333 38.8462C46.4822 39.3037 47.928 39.5393 49.3881 39.5393C49.7035 39.5392 50.0188 39.5281 50.3331 39.5061L38.2697 30.4059Z" fill="#333333"/>
<path d="M15.4943 4.95383L83.5333 56.2191" stroke="#333333" stroke-width="10"/>
</svg>